<svg width="14" height="14" viewBox="0 0 14 14" fill="none" xmlns="http://www.w3.org/2000/svg">
<path d="M8.23849 7.00015L13.744 1.49459C14.0861 1.15283 14.0861 0.598303 13.744 0.256541C13.402 -0.0855136 12.848 -0.0855136 12.506 0.256541L7.00044 5.7621L1.49459 0.256541C1.15254 -0.0855136 0.598595 -0.0855136 0.256541 0.256541C-0.0855135 0.598303 -0.0855135 1.15283 0.256541 1.49459L5.76239 7.00015L0.256541 12.5057C-0.0855135 12.8475 -0.0855135 13.402 0.256541 13.7438C0.427568 13.9145 0.651712 14 0.875565 14C1.09942 14 1.32356 13.9145 1.49459 13.7435L7.00044 8.2379L12.506 13.7435C12.677 13.9145 12.9012 14 13.125 14C13.3489 14 13.573 13.9145 13.744 13.7435C14.0861 13.4017 14.0861 12.8472 13.744 12.5054L8.23849 7.00015Z" fill="#BCCBD7"/>
</svg>